<?xml version="1.0" encoding="utf-8" ?>
<svg xmlns="http://www.w3.org/2000/svg" xmlns:xlink="http://www.w3.org/1999/xlink" width="95" height="76">
	<defs>
		<clipPath id="clip_0">
			<rect x="-588.18506" y="-453.94604" width="1271.0399" height="1064.496" clip-rule="evenodd"/>
		</clipPath>
	</defs>
	<g clip-path="url(#clip_0)">
		<path fill="rgb(34,34,34)" stroke="none" transform="matrix(0.993 0 0 0.993 0.66394 0.8479)" d="M94.298 21.566C93.923 21.038 93.316 20.724 92.667 20.724L19.682 20.724L14.288 1.461C14.047 0.597 13.259 0 12.362 0L2 0C0.896 0 0 0.896 0 2C0 3.104 0.896 4 2 4L10.846 4L23.448 49.007C18.824 49.08 15.083 52.859 15.083 57.5C15.083 62.187 18.896 66 23.583 66L26.146 66C25.815 66.782 25.632 67.641 25.632 68.542C25.632 72.149 28.567 75.084 32.173 75.084C35.78 75.084 38.715 72.149 38.715 68.542C38.715 67.641 38.531 66.782 38.201 66L59.379 66C58.965 66.858 58.726 67.816 58.726 68.832C58.726 72.439 61.661 75.374 65.267 75.374C68.873 75.374 71.808 72.439 71.808 68.832C71.808 67.817 71.569 66.859 71.155 66L74.668 66C75.772 66 76.668 65.104 76.668 64C76.668 62.896 75.772 62 74.668 62L23.582 62C21.101 62 19.082 59.981 19.082 57.5C19.082 55.019 21.101 53 23.582 53L82.823 53C83.825 53 84.647 52.26 84.793 51.299L94.555 23.384C94.769 22.772 94.673 22.095 94.298 21.566ZM53.426 29.166L40.362 29.166L39.731 24.723L53.426 24.723L53.426 29.166ZM57.427 29.166L57.427 24.723L71.122 24.723L70.491 29.166L57.427 29.166ZM88.295 29.166L74.532 29.166L75.163 24.723L89.849 24.723L88.295 29.166ZM36.321 29.167L35.69 24.724L20.802 24.724L22.046 29.167L36.321 29.167ZM53.427 38.999L53.427 33.166L40.931 33.166L41.76 38.999L53.427 38.999ZM69.094 38.999L69.923 33.166L57.427 33.166L57.427 38.999L69.094 38.999ZM37.719 39L24.799 39L23.165 33.167L36.89 33.167L37.719 39ZM73.135 39L84.856 39L86.897 33.167L73.964 33.167L73.135 39ZM25.919 43L27.599 49L39.14 49L38.288 43L25.919 43ZM43.181 49L42.328 43L53.427 43L53.427 49L43.181 49ZM57.427 43L57.427 49L67.673 49L68.526 43L57.427 43ZM81.36 49L71.714 49L72.566 43L83.459 43L81.36 49ZM32.172 71.082C33.573 71.082 34.714 69.941 34.714 68.54C34.714 67.139 33.573 65.998 32.172 65.998C30.771 65.998 29.631 67.138 29.631 68.54C29.631 69.942 30.771 71.082 32.172 71.082ZM65.266 71.372C63.865 71.372 62.725 70.232 62.725 68.83C62.725 67.428 63.865 66.288 65.266 66.288C66.667 66.288 67.807 67.428 67.807 68.83C67.807 70.232 66.667 71.372 65.266 71.372Z" fill-rule="evenodd"/>
	</g>

</svg>